#!OML:ASF X:\für Bonn\!DataBase\2005_08_12_Daniel\c3d\Daniel.ASF
:FULLY-SPECIFIED
:DEGREES
122
root 7.85099 16.1444 8.70125 710.556 -134.327 -2.44623
lowerback 41.7573 2.15517 -4.54766
upperback 11.7482 -2.79458 -4.21936
thorax -6.85248 -2.53746 -0.884806
lowerneck -3.69952 1.25511 -6.80945
upperneck 5.77833 1.88958 2.68688
head 2.40512 0.852689 2.11949
rclavicle 5.80451e-014 5.08889e-014
rhumerus -41.677 2.50939 -87.9493
rradius 93.0896
rwrist 8.00344
rhand -35.5794 9.35769
rfingers 7.12502
rthumb -8.70391 -20.4429
lclavicle 5.80451e-014 5.08889e-014
lhumerus 156.547 170.687 261.051
lradius 89.4473
lwrist -25.4674
lhand -28.344 2.73999
lfingers 7.12502
lthumb -1.71812 32.7128
rfemur -32.0502 1.48477 18.4462
rtibia 63.1371
rfoot -18.5101 7.7485
rtoes -13.4418
lfemur -12.7745 3.5545 -25.3227
ltibia 61.2535
lfoot -35.3064 -5.61231
ltoes -3.89352
123
root 7.76249 16.1374 8.63342 710.372 -134.517 -2.41723
lowerback 41.6733 2.0162 -4.46026
upperback 11.8091 -2.9305 -4.19089
thorax -6.763 -2.61011 -0.847358
lowerneck -3.73697 1.28661 -6.72213
upperneck 5.90204 1.92574 2.71059
head 2.45144 0.870659 2.11526
rclavicle -1.15295e-013 1.74931e-014
rhumerus -41.6981 2.5539 -88.1852
rradius 93.391
rwrist 8.05144
rhand -35.6757 9.30662
rfingers 7.12502
rthumb -8.79686 -20.49
lclavicle -1.15295e-013 1.74931e-014
lhumerus 156.636 171.03 260.974
lradius 89.7768
lwrist -25.4629
lhand -28.3869 2.93
lfingers 7.12502
lthumb -1.7596 32.9025
rfemur -32.5818 1.70621 18.5064
rtibia 61.8062
rfoot -18.2231 7.58987
rtoes -13.3928
lfemur -12.0134 3.55502 -25.3738
ltibia 61.0967
lfoot -35.8205 -5.31488
ltoes -4.06236
124
root 7.6753 16.1262 8.56514 710.185 -134.713 -2.38109
lowerback 41.6325 1.88153 -4.36721
upperback 11.827 -3.05715 -4.16269
thorax -6.73441 -2.67335 -0.814958
lowerneck -3.65502 1.32604 -6.61776
upperneck 5.98905 1.96278 2.72439
head 2.46345 0.888984 2.10185
rclavicle 6.83819e-014 1.49486e-013
rhumerus -41.8087 2.58146 -88.3963
rradius 93.7523
rwrist 8.0847
rhand -35.7138 9.2743
rfingers 7.12502
rthumb -8.8336 -20.5208
lclavicle 6.83819e-014 1.49486e-013
lhumerus 156.678 171.341 260.913
lradius 90.1088
lwrist -25.3743
lhand -28.3458 3.01057
lfingers 7.12502
lthumb -1.71986 32.9834
rfemur -33.0919 1.98897 18.5811
rtibia 60.4697
rfoot -17.9629 7.28486
rtoes -13.2728
lfemur -11.2795 3.6015 -25.3999
ltibia 60.9655
lfoot -36.2894 -5.0602
ltoes -4.22078
125
root 7.58699 16.1161 8.49572 709.964 -134.927 -2.329
lowerback 41.5345 1.74259 -4.25883
upperback 11.9225 -3.19059 -4.12942
thorax -6.6032 -2.74958 -0.786258
lowerneck -3.75292 1.3774 -6.58714
upperneck 6.11822 2.03188 2.7696
head 2.52105 0.923123 2.11733
rclavicle 1.43125e-014 2.8625e-014
rhumerus -41.8319 2.70877 -88.5752
rradius 94.1489
rwrist 8.12423
rhand -35.8244 9.16217
rfingers 7.12502
rthumb -8.94035 -20.6284
lclavicle 1.43125e-014 2.8625e-014
lhumerus 156.855 171.618 260.858
lradius 90.4044
lwrist -25.3813
lhand -28.3747 3.12995
lfingers 7.12502
lthumb -1.74782 33.1025
rfemur -33.5449 2.29068 18.67
rtibia 59.1003
rfoot -17.7209 7.01466
rtoes -13.2739
lfemur -10.5051 3.65641 -25.4187
ltibia 60.8389
lfoot -36.7345 -4.77964
ltoes -4.379
126
root 7.4989 16.1043 8.42675 709.748 -135.129 -2.26396
lowerback 41.4251 1.57836 -4.11709
upperback 11.9843 -3.3326 -4.09884
thorax -6.50818 -2.82388 -0.773561
lowerneck -3.60714 1.43916 -6.54667
upperneck 6.14639 2.10054 2.74625
head 2.49993 0.955195 2.10173
rclavicle 8.5875e-014 8.26944e-014
rhumerus -41.957 2.89829 -88.7359
rradius 94.6129
rwrist 8.05089
rhand -35.8789 9.06201
rfingers 7.12502
rthumb -8.99298 -20.7263
lclavicle 8.5875e-014 8.26944e-014
lhumerus 156.901 171.899 260.779
lradius 90.7726
lwrist -25.3967
lhand -28.3904 3.15641
lfingers 7.12502
lthumb -1.76297 33.1289
rfemur -33.9894 2.54818 18.7675
rtibia 57.7416
rfoot -17.4703 6.70815
rtoes -12.9347
lfemur -9.77536 3.70472 -25.4299
ltibia 60.7321
lfoot -37.0924 -4.4999
ltoes -4.43593
127
root 7.41091 16.0885 8.3561 709.559 -135.358 -2.27993
lowerback 41.3286 1.45381 -3.97408
upperback 12.0807 -3.44387 -4.11952
thorax -6.38231 -2.88816 -0.829327
lowerneck -3.57303 1.45919 -6.48046
upperneck 6.24366 2.11525 2.79534
head 2.52532 0.962837 2.10753
rclavicle -3.26007e-014 2.70347e-014
rhumerus -42.0871 2.94025 -88.9373
rradius 95.1312
rwrist 8.02204
rhand -35.8955 9.011
rfingers 7.12502
rthumb -9.00898 -20.7766
lclavicle -3.26007e-014 2.70347e-014
lhumerus 157.042 172.245 260.729
lradius 91.1503
lwrist -25.3079
lhand -28.3223 3.15943
lfingers 7.12502
lthumb -1.6972 33.1324
rfemur -34.3891 2.88428 18.8093
rtibia 56.3731
rfoot -17.271 6.33555
rtoes -12.8454
lfemur -9.00751 3.79451 -25.4905
ltibia 60.643
lfoot -37.49 -4.24535
ltoes -4.53529
128
root 7.3222 16.0723 8.28387 709.341 -135.581 -2.21737
lowerback 41.2288 1.3124 -3.84198
upperback 12.1386 -3.56576 -4.09554
thorax -6.29461 -2.9531 -0.827245
lowerneck -3.42591 1.50658 -6.47627
upperneck 6.28154 2.16276 2.83461
head 2.50798 0.985163 2.11892
rclavicle 2.38542e-014 6.99722e-014
rhumerus -42.2657 3.05556 -89.0972
rradius 95.6707
rwrist 8.06696
rhand -35.9394 9.00723
rfingers 7.12502
rthumb -9.05131 -20.7786
lclavicle 2.38542e-014 6.99722e-014
lhumerus 157.115 172.48 260.693
lradius 91.5009
lwrist -25.2464
lhand -28.2743 3.07622
lfingers 7.12502
lthumb -1.65083 33.0496
rfemur -34.7823 3.21075 18.9072
rtibia 55.005
rfoot -17.1164 5.98866
rtoes -12.8156
lfemur -8.28784 3.86556 -25.4826
ltibia 60.578
lfoot -37.8555 -4.02408
ltoes -4.59939
129
root 7.23474 16.0524 8.2111 709.095 -135.815 -2.20474
lowerback 41.2048 1.21752 -3.79586
upperback 12.2135 -3.68013 -4.04939
thorax -6.20411 -3.02187 -0.760177
lowerneck -3.31585 1.57077 -6.35236
upperneck 6.29986 2.23569 2.77021
head 2.49057 1.0207 2.07502
rclavicle 1.19271e-013 -6.36111e-015
rhumerus -42.4312 3.27261 -89.2316
rradius 96.2644
rwrist 8.01982
rhand -35.9596 8.95553
rfingers 7.12502
rthumb -9.07086 -20.8294
lclavicle 1.19271e-013 -6.36111e-015
lhumerus 157.26 172.633 260.699
lradius 91.7935
lwrist -25.2623
lhand -28.3028 3.06486
lfingers 7.12502
lthumb -1.67841 33.038
rfemur -35.0682 3.56336 18.9847
rtibia 53.6346
rfoot -16.9394 5.59367
rtoes -12.6943
lfemur -7.50593 3.96148 -25.5073
ltibia 60.5239
lfoot -38.2312 -3.8128
ltoes -4.62029
130
root 7.14646 16.0322 8.1354 708.858 -136.064 -2.16877
lowerback 41.2159 1.14823 -3.71482
upperback 12.2402 -3.7455 -4.02013
thorax -6.18052 -3.06018 -0.745138
lowerneck -3.2084 1.59785 -6.1188
upperneck 6.39433 2.25068 2.72031
head 2.50254 1.02883 2.01609
rclavicle -1.24837e-013 1.03368e-013
rhumerus -42.6145 3.36246 -89.3999
rradius 96.7977
rwrist 8.01675
rhand -35.9508 9.01739
rfingers 7.12502
rthumb -9.06231 -20.7679
lclavicle -1.24837e-013 1.03368e-013
lhumerus 157.378 172.922 260.677
lradius 92.0899
lwrist -25.2333
lhand -28.2415 3.00439
lfingers 7.12502
lthumb -1.6192 32.978
rfemur -35.3269 3.98235 19.0493
rtibia 52.2515
rfoot -16.7678 5.20937
rtoes -12.7669
lfemur -6.77825 4.13251 -25.4664
ltibia 60.5051
lfoot -38.5964 -3.70399
ltoes -4.61258
131
root 7.05776 16.008 8.05924 708.643 -136.333 -2.18405
lowerback 41.1734 1.08438 -3.7088
upperback 12.3305 -3.84411 -3.99537
thorax -6.06675 -3.12461 -0.68798
lowerneck -3.13985 1.65655 -5.94888
upperneck 6.41841 2.31692 2.66364
head 2.49561 1.06279 1.9674
rclavicle -4.85035e-014 -1.11319e-014
rhumerus -42.8038 3.58185 -89.6031
rradius 97.4282
rwrist 7.96082
rhand -35.9494 8.97773
rfingers 7.12502
rthumb -9.06094 -20.8076
lclavicle -4.85035e-014 -1.11319e-014
lhumerus 157.621 173.03 260.652
lradius 92.3023
lwrist -25.219
lhand -28.257 2.99331
lfingers 7.12502
lthumb -1.63414 32.9668
rfemur -35.5119 4.47221 19.0274
rtibia 50.8847
rfoot -16.6641 4.79928
rtoes -12.6932
lfemur -6.01392 4.25316 -25.4905
ltibia 60.4817
lfoot -38.9486 -3.55214
ltoes -4.73939
